<svg width="1600" height="900" viewBox="0 0 1600 900" fill="none" xmlns="http://www.w3.org/2000/svg">
  <defs>
    <linearGradient id="bg2" x1="1600" y1="0" x2="0" y2="900" gradientUnits="userSpaceOnUse">
      <stop stop-color="#718C1D"/>
      <stop offset="0.5" stop-color="#376E28"/>
      <stop offset="1" stop-color="#112E19"/>
    </linearGradient>
    <radialGradient id="glow2" cx="0" cy="0" r="1" gradientUnits="userSpaceOnUse" gradientTransform="translate(330 210) rotate(90) scale(260 260)">
      <stop stop-color="#F6E5A3" stop-opacity="0.65"/>
      <stop offset="1" stop-color="#F6E5A3" stop-opacity="0"/>
    </radialGradient>
  </defs>
  <rect width="1600" height="900" fill="url(#bg2)"/>
  <rect width="1600" height="900" fill="url(#glow2)"/>
  <path d="M0 572C132 642 261 673 405 669C594 664 776 561 968 547C1174 533 1381 615 1600 749V900H0V572Z" fill="#17361C" fill-opacity="0.72"/>
  <path d="M0 648C202 546 415 522 598 575C756 621 862 714 1009 739C1183 769 1369 730 1600 594V900H0V648Z" fill="#24471D" fill-opacity="0.56"/>
  <g opacity="0.9">
    <ellipse cx="392" cy="515" rx="56" ry="194" transform="rotate(-14 392 515)" fill="#9DCA3E"/>
    <path d="M358 686C371 572 395 464 443 358" stroke="#EDF3D7" stroke-width="6" stroke-linecap="round"/>
    <ellipse cx="504" cy="537" rx="46" ry="164" transform="rotate(12 504 537)" fill="#6BAA34"/>
    <path d="M524 681C516 584 509 493 487 407" stroke="#EDF3D7" stroke-width="5" stroke-linecap="round"/>
  </g>
  <g opacity="0.86">
    <circle cx="1160" cy="298" r="28" fill="#CF7B26"/>
    <circle cx="1160" cy="298" r="18" fill="#7D2F18"/>
    <path d="M1160 264V232M1135 286L1106 270M1185 286L1214 270M1136 317L1108 334M1184 317L1212 334M1160 332V364" stroke="#59210D" stroke-width="5" stroke-linecap="round"/>
  </g>
</svg>