<svg width="1600" height="900" viewBox="0 0 1600 900" fill="none" xmlns="http://www.w3.org/2000/svg">
  <defs>
    <linearGradient id="bg1" x1="0" y1="0" x2="1600" y2="900" gradientUnits="userSpaceOnUse">
      <stop stop-color="#10391B"/>
      <stop offset="0.5" stop-color="#2C6A23"/>
      <stop offset="1" stop-color="#A0C63B"/>
    </linearGradient>
    <radialGradient id="sun1" cx="0" cy="0" r="1" gradientUnits="userSpaceOnUse" gradientTransform="translate(1180 180) rotate(90) scale(240 240)">
      <stop stop-color="#F5D15A" stop-opacity="0.8"/>
      <stop offset="1" stop-color="#F5D15A" stop-opacity="0"/>
    </radialGradient>
    <linearGradient id="leaf1" x1="0" y1="0" x2="1" y2="1">
      <stop stop-color="#BEDD60"/>
      <stop offset="1" stop-color="#2F7D32"/>
    </linearGradient>
  </defs>
  <rect width="1600" height="900" fill="url(#bg1)"/>
  <rect width="1600" height="900" fill="url(#sun1)"/>
  <path d="M0 610C174 520 297 483 493 513C673 540 771 657 942 674C1130 692 1238 612 1600 497V900H0V610Z" fill="#244D1F" fill-opacity="0.6"/>
  <path d="M0 686C184 624 354 596 533 631C717 667 885 785 1077 786C1269 788 1421 709 1600 606V900H0V686Z" fill="#183815" fill-opacity="0.72"/>
  <g opacity="0.85">
    <path d="M292 741C355 595 425 517 516 469C566 531 579 607 550 691C516 789 424 839 292 741Z" fill="url(#leaf1)"/>
    <path d="M394 731C437 600 488 530 557 484C593 540 600 602 579 669C553 748 489 794 394 731Z" fill="#1D5B21" fill-opacity="0.55"/>
  </g>
  <g opacity="0.72">
    <path d="M1104 730C1171 583 1247 504 1341 456C1392 520 1406 599 1376 686C1341 788 1243 836 1104 730Z" fill="#9BC53E"/>
    <path d="M1206 718C1252 594 1300 524 1368 478C1406 536 1411 597 1389 665C1362 743 1300 786 1206 718Z" fill="#3A7D2B" fill-opacity="0.5"/>
  </g>
  <circle cx="1270" cy="206" r="9" fill="#43290E"/>
  <ellipse cx="1295" cy="206" rx="21" ry="10" fill="#D28A27"/>
  <ellipse cx="1247" cy="206" rx="21" ry="10" fill="#D28A27"/>
  <path d="M1270 193V169M1261 195L1245 177M1279 195L1295 177" stroke="#43290E" stroke-width="4" stroke-linecap="round"/>
</svg>